<svg width="10" height="16" viewBox="0 0 10 16" fill="none" xmlns="http://www.w3.org/2000/svg">
<path d="M2.65398 8.00001L8.93128 14.2773C9.09683 14.4429 9.17753 14.6378 9.17336 14.8621C9.16905 15.0865 9.08412 15.2815 8.91857 15.4471C8.75287 15.6127 8.55787 15.6954 8.33357 15.6954C8.10926 15.6954 7.91426 15.6127 7.74857 15.4471L1.35607 9.0673C1.20537 8.91661 1.09371 8.74779 1.02107 8.56085C0.948429 8.3739 0.912109 8.18696 0.912109 8.00001C0.912109 7.81307 0.948429 7.62612 1.02107 7.43918C1.09371 7.25223 1.20537 7.08342 1.35607 6.93272L7.74857 0.540012C7.91426 0.374456 8.11142 0.293832 8.34003 0.298137C8.56864 0.302443 8.76572 0.387373 8.93128 0.552929C9.09683 0.718484 9.17961 0.913485 9.17961 1.13793C9.17961 1.36223 9.09683 1.55717 8.93128 1.72272L2.65398 8.00001Z" fill="white"/>
</svg>
