<svg width="18" height="18" viewBox="0 0 18 18" fill="none" xmlns="http://www.w3.org/2000/svg">
<path d="M8.99996 0.666626C13.6025 0.666626 17.3333 4.39746 17.3333 8.99996C17.3333 13.6025 13.6025 17.3333 8.99996 17.3333C4.39746 17.3333 0.666626 13.6025 0.666626 8.99996C0.666626 4.39746 4.39746 0.666626 8.99996 0.666626ZM8.99996 3.99996C8.77894 3.99996 8.56698 4.08776 8.4107 4.24404C8.25442 4.40032 8.16662 4.61228 8.16662 4.83329V8.99996C8.16667 9.22095 8.2545 9.43288 8.41079 9.58912L10.9108 12.0891C11.068 12.2409 11.2785 12.3249 11.497 12.323C11.7155 12.3211 11.9245 12.2335 12.079 12.079C12.2335 11.9245 12.3211 11.7155 12.323 11.497C12.3249 11.2785 12.2409 11.068 12.0891 10.9108L9.83329 8.65496V4.83329C9.83329 4.61228 9.74549 4.40032 9.58921 4.24404C9.43293 4.08776 9.22097 3.99996 8.99996 3.99996Z" fill="#FFA544"/>
</svg>
