<svg width="297" height="454" viewBox="0 0 297 454" fill="none" xmlns="http://www.w3.org/2000/svg">
<g opacity="0.2">
<circle opacity="0.3" cx="5" cy="5" r="5" transform="matrix(-1 0 0 1 96 263)" fill="#17422C"/>
<circle opacity="0.5" cx="5" cy="5" r="5" transform="matrix(-1 0 0 1 96 275)" fill="#17422C"/>
<circle cx="5" cy="5" r="5" transform="matrix(-1 0 0 1 96 287)" fill="#17422C"/>
<circle cx="5" cy="5" r="5" transform="matrix(-1 0 0 1 96 299)" fill="#17422C"/>
<circle cx="5" cy="5" r="5" transform="matrix(-1 0 0 1 96 311)" fill="#25925E"/>
<g filter="url(#filter0_d_1123_2982)">
<circle cx="5" cy="5" r="5" transform="matrix(-1 0 0 1 96 323)" fill="#3AFFA3"/>
</g>
<circle cx="5" cy="5" r="5" transform="matrix(-1 0 0 1 96 335)" fill="#25925E"/>
<circle cx="5" cy="5" r="5" transform="matrix(-1 0 0 1 96 347)" fill="#17422C"/>
<circle cx="5" cy="5" r="5" transform="matrix(-1 0 0 1 96 359)" fill="#17422C"/>
<circle cx="5" cy="5" r="5" transform="matrix(-1 0 0 1 96 371)" fill="#10251A"/>
<circle opacity="0.3" cx="5" cy="5" r="5" transform="matrix(-1 0 0 1 96 383)" fill="#17422C"/>
<g filter="url(#filter1_d_1123_2982)">
<circle cx="5" cy="5" r="5" transform="matrix(-1 0 0 1 82 280)" fill="#3AFFA3"/>
</g>
<circle cx="5" cy="5" r="5" transform="matrix(-1 0 0 1 82 292)" fill="#25925E"/>
<circle cx="5" cy="5" r="5" transform="matrix(-1 0 0 1 82 304)" fill="#17422C"/>
<circle cx="5" cy="5" r="5" transform="matrix(-1 0 0 1 82 316)" fill="#17422C"/>
<circle cx="5" cy="5" r="5" transform="matrix(-1 0 0 1 82 328)" fill="#10251A"/>
<circle opacity="0.3" cx="5" cy="5" r="5" transform="matrix(-1 0 0 1 82 340)" fill="#17422C"/>
</g>
<g opacity="0.2">
<circle opacity="0.3" cx="290" cy="26" r="5" fill="#17422C"/>
<circle opacity="0.5" cx="290" cy="38" r="5" fill="#17422C"/>
<circle cx="290" cy="50" r="5" fill="#17422C"/>
<circle cx="290" cy="62" r="5" fill="#17422C"/>
<circle cx="290" cy="74" r="5" fill="#25925E"/>
<g filter="url(#filter2_d_1123_2982)">
<circle cx="290" cy="86" r="5" fill="#3AFFA3"/>
</g>
<circle cx="290" cy="98" r="5" fill="#25925E"/>
<circle cx="290" cy="110" r="5" fill="#17422C"/>
<circle cx="290" cy="122" r="5" fill="#17422C"/>
<circle cx="290" cy="134" r="5" fill="#10251A"/>
<circle opacity="0.3" cx="290" cy="146" r="5" fill="#17422C"/>
</g>
<g opacity="0.2">
<circle opacity="0.3" cx="218" cy="247" r="5" fill="#17422C"/>
<circle opacity="0.5" cx="218" cy="259" r="5" fill="#17422C"/>
<circle cx="218" cy="271" r="5" fill="#17422C"/>
<circle cx="218" cy="283" r="5" fill="#17422C"/>
<circle cx="218" cy="295" r="5" fill="#25925E"/>
<g filter="url(#filter3_d_1123_2982)">
<circle cx="218" cy="307" r="5" fill="#3AFFA3"/>
</g>
<circle cx="218" cy="319" r="5" fill="#25925E"/>
<circle cx="218" cy="331" r="5" fill="#17422C"/>
<circle cx="218" cy="343" r="5" fill="#17422C"/>
<circle cx="218" cy="355" r="5" fill="#10251A"/>
<circle opacity="0.3" cx="218" cy="367" r="5" fill="#17422C"/>
</g>
<g opacity="0.2">
<circle opacity="0.3" cx="7" cy="329" r="5" fill="#17422C"/>
<circle opacity="0.5" cx="7" cy="341" r="5" fill="#17422C"/>
<circle cx="7" cy="353" r="5" fill="#17422C"/>
<circle cx="7" cy="365" r="5" fill="#17422C"/>
<circle cx="7" cy="377" r="5" fill="#25925E"/>
<g filter="url(#filter4_d_1123_2982)">
<circle cx="7" cy="389" r="5" fill="#3AFFA3"/>
</g>
<circle cx="7" cy="401" r="5" fill="#25925E"/>
<circle cx="7" cy="413" r="5" fill="#17422C"/>
<circle cx="7" cy="425" r="5" fill="#17422C"/>
<circle cx="7" cy="437" r="5" fill="#10251A"/>
<circle opacity="0.3" cx="7" cy="449" r="5" fill="#17422C"/>
</g>
<g opacity="0.2">
<circle opacity="0.3" cx="47.4546" cy="38.3637" r="4.54545" fill="#17422C"/>
<circle opacity="0.5" cx="47.4546" cy="49.4546" r="4.54545" fill="#17422C"/>
<circle cx="47.4546" cy="60.5455" r="4.54545" fill="#17422C"/>
<circle cx="47.4546" cy="71.6364" r="4.54545" fill="#17422C"/>
<circle cx="47.4546" cy="82.7273" r="4.54545" fill="#25925E"/>
<g filter="url(#filter5_d_1123_2982)">
<circle cx="47.4546" cy="93.8183" r="4.54545" fill="#3AFFA3"/>
</g>
<circle cx="47.4546" cy="104.909" r="4.54545" fill="#25925E"/>
<circle cx="47.4546" cy="116" r="4.54545" fill="#17422C"/>
<circle cx="47.4546" cy="127.091" r="4.54545" fill="#17422C"/>
<circle cx="47.4546" cy="138.182" r="4.54545" fill="#10251A"/>
<circle opacity="0.3" cx="47.4546" cy="149.273" r="4.54545" fill="#17422C"/>
<g filter="url(#filter6_d_1123_2982)">
<circle cx="36.5455" cy="6.54545" r="4.54545" fill="#3AFFA3"/>
</g>
<circle cx="36.5455" cy="17.6364" r="4.54545" fill="#25925E"/>
<circle cx="36.5455" cy="28.7272" r="4.54545" fill="#17422C"/>
<circle cx="36.5455" cy="39.8182" r="4.54545" fill="#17422C"/>
<circle cx="36.5455" cy="50.9091" r="4.54545" fill="#10251A"/>
<circle opacity="0.3" cx="36.5455" cy="62" r="4.54545" fill="#17422C"/>
</g>
<defs>
<filter id="filter0_d_1123_2982" x="84" y="321" width="14" height="14" filterUnits="userSpaceOnUse" color-interpolation-filters="sRGB">
<feFlood flood-opacity="0" result="BackgroundImageFix"/>
<feColorMatrix in="SourceAlpha" type="matrix" values="0 0 0 0 0 0 0 0 0 0 0 0 0 0 0 0 0 0 127 0" result="hardAlpha"/>
<feOffset/>
<feGaussianBlur stdDeviation="1"/>
<feComposite in2="hardAlpha" operator="out"/>
<feColorMatrix type="matrix" values="0 0 0 0 0.227451 0 0 0 0 1 0 0 0 0 0.639216 0 0 0 1 0"/>
<feBlend mode="normal" in2="BackgroundImageFix" result="effect1_dropShadow_1123_2982"/>
<feBlend mode="normal" in="SourceGraphic" in2="effect1_dropShadow_1123_2982" result="shape"/>
</filter>
<filter id="filter1_d_1123_2982" x="70" y="278" width="14" height="14" filterUnits="userSpaceOnUse" color-interpolation-filters="sRGB">
<feFlood flood-opacity="0" result="BackgroundImageFix"/>
<feColorMatrix in="SourceAlpha" type="matrix" values="0 0 0 0 0 0 0 0 0 0 0 0 0 0 0 0 0 0 127 0" result="hardAlpha"/>
<feOffset/>
<feGaussianBlur stdDeviation="1"/>
<feComposite in2="hardAlpha" operator="out"/>
<feColorMatrix type="matrix" values="0 0 0 0 0.227451 0 0 0 0 1 0 0 0 0 0.639216 0 0 0 1 0"/>
<feBlend mode="normal" in2="BackgroundImageFix" result="effect1_dropShadow_1123_2982"/>
<feBlend mode="normal" in="SourceGraphic" in2="effect1_dropShadow_1123_2982" result="shape"/>
</filter>
<filter id="filter2_d_1123_2982" x="283" y="79" width="14" height="14" filterUnits="userSpaceOnUse" color-interpolation-filters="sRGB">
<feFlood flood-opacity="0" result="BackgroundImageFix"/>
<feColorMatrix in="SourceAlpha" type="matrix" values="0 0 0 0 0 0 0 0 0 0 0 0 0 0 0 0 0 0 127 0" result="hardAlpha"/>
<feOffset/>
<feGaussianBlur stdDeviation="1"/>
<feComposite in2="hardAlpha" operator="out"/>
<feColorMatrix type="matrix" values="0 0 0 0 0.227451 0 0 0 0 1 0 0 0 0 0.639216 0 0 0 1 0"/>
<feBlend mode="normal" in2="BackgroundImageFix" result="effect1_dropShadow_1123_2982"/>
<feBlend mode="normal" in="SourceGraphic" in2="effect1_dropShadow_1123_2982" result="shape"/>
</filter>
<filter id="filter3_d_1123_2982" x="211" y="300" width="14" height="14" filterUnits="userSpaceOnUse" color-interpolation-filters="sRGB">
<feFlood flood-opacity="0" result="BackgroundImageFix"/>
<feColorMatrix in="SourceAlpha" type="matrix" values="0 0 0 0 0 0 0 0 0 0 0 0 0 0 0 0 0 0 127 0" result="hardAlpha"/>
<feOffset/>
<feGaussianBlur stdDeviation="1"/>
<feComposite in2="hardAlpha" operator="out"/>
<feColorMatrix type="matrix" values="0 0 0 0 0.227451 0 0 0 0 1 0 0 0 0 0.639216 0 0 0 1 0"/>
<feBlend mode="normal" in2="BackgroundImageFix" result="effect1_dropShadow_1123_2982"/>
<feBlend mode="normal" in="SourceGraphic" in2="effect1_dropShadow_1123_2982" result="shape"/>
</filter>
<filter id="filter4_d_1123_2982" x="0" y="382" width="14" height="14" filterUnits="userSpaceOnUse" color-interpolation-filters="sRGB">
<feFlood flood-opacity="0" result="BackgroundImageFix"/>
<feColorMatrix in="SourceAlpha" type="matrix" values="0 0 0 0 0 0 0 0 0 0 0 0 0 0 0 0 0 0 127 0" result="hardAlpha"/>
<feOffset/>
<feGaussianBlur stdDeviation="1"/>
<feComposite in2="hardAlpha" operator="out"/>
<feColorMatrix type="matrix" values="0 0 0 0 0.227451 0 0 0 0 1 0 0 0 0 0.639216 0 0 0 1 0"/>
<feBlend mode="normal" in2="BackgroundImageFix" result="effect1_dropShadow_1123_2982"/>
<feBlend mode="normal" in="SourceGraphic" in2="effect1_dropShadow_1123_2982" result="shape"/>
</filter>
<filter id="filter5_d_1123_2982" x="40.9092" y="87.2728" width="13.0908" height="13.0909" filterUnits="userSpaceOnUse" color-interpolation-filters="sRGB">
<feFlood flood-opacity="0" result="BackgroundImageFix"/>
<feColorMatrix in="SourceAlpha" type="matrix" values="0 0 0 0 0 0 0 0 0 0 0 0 0 0 0 0 0 0 127 0" result="hardAlpha"/>
<feOffset/>
<feGaussianBlur stdDeviation="1"/>
<feComposite in2="hardAlpha" operator="out"/>
<feColorMatrix type="matrix" values="0 0 0 0 0.227451 0 0 0 0 1 0 0 0 0 0.639216 0 0 0 1 0"/>
<feBlend mode="normal" in2="BackgroundImageFix" result="effect1_dropShadow_1123_2982"/>
<feBlend mode="normal" in="SourceGraphic" in2="effect1_dropShadow_1123_2982" result="shape"/>
</filter>
<filter id="filter6_d_1123_2982" x="30" y="0" width="13.0908" height="13.0909" filterUnits="userSpaceOnUse" color-interpolation-filters="sRGB">
<feFlood flood-opacity="0" result="BackgroundImageFix"/>
<feColorMatrix in="SourceAlpha" type="matrix" values="0 0 0 0 0 0 0 0 0 0 0 0 0 0 0 0 0 0 127 0" result="hardAlpha"/>
<feOffset/>
<feGaussianBlur stdDeviation="1"/>
<feComposite in2="hardAlpha" operator="out"/>
<feColorMatrix type="matrix" values="0 0 0 0 0.227451 0 0 0 0 1 0 0 0 0 0.639216 0 0 0 1 0"/>
<feBlend mode="normal" in2="BackgroundImageFix" result="effect1_dropShadow_1123_2982"/>
<feBlend mode="normal" in="SourceGraphic" in2="effect1_dropShadow_1123_2982" result="shape"/>
</filter>
</defs>
</svg>
