<svg width="49" height="48" viewBox="0 0 49 48" fill="none" xmlns="http://www.w3.org/2000/svg">
<rect x="0.900024" width="48" height="48" rx="24" fill="white" fill-opacity="0.07"/>
<rect x="0.900024" width="48" height="48" rx="24" fill="url(#paint0_linear_175_1389)" fill-opacity="0.2"/>
<g clip-path="url(#clip0_175_1389)">
<g filter="url(#filter0_d_175_1389)">
<path fill-rule="evenodd" clip-rule="evenodd" d="M17.0752 23.026H31.447C31.6268 23.026 31.7916 23.1059 31.9265 23.2498L34.2044 25.7433C34.624 26.2068 34.3243 26.99 33.7249 26.99H19.3531C19.1733 26.99 19.0084 26.9101 18.8735 26.7662L16.5956 24.2727C16.176 23.8092 16.4757 23.026 17.0752 23.026ZM16.5956 19.7173L18.8735 17.2238C18.9934 17.0799 19.1733 17 19.3531 17H33.7099C34.3093 17 34.609 17.7832 34.1894 18.2468L31.9265 20.7403C31.8066 20.8841 31.6268 20.964 31.447 20.964H17.0752C16.4757 20.964 16.176 20.1808 16.5956 19.7173ZM34.1894 30.2827L31.9115 32.7762C31.7767 32.9201 31.6118 33 31.432 33H17.0752C16.4757 33 16.176 32.2168 16.5956 31.7532L18.8735 29.2597C18.9934 29.1159 19.1733 29.036 19.3531 29.036H33.7099C34.3093 29.036 34.609 29.8192 34.1894 30.2827Z" fill="#9B82FF"/>
</g>
</g>
<defs>
<filter id="filter0_d_175_1389" x="9.60002" y="14.2" width="31.6" height="29.6" filterUnits="userSpaceOnUse" color-interpolation-filters="sRGB">
<feFlood flood-opacity="0" result="BackgroundImageFix"/>
<feColorMatrix in="SourceAlpha" type="matrix" values="0 0 0 0 0 0 0 0 0 0 0 0 0 0 0 0 0 0 127 0" result="hardAlpha"/>
<feOffset dy="4"/>
<feGaussianBlur stdDeviation="3.4"/>
<feComposite in2="hardAlpha" operator="out"/>
<feColorMatrix type="matrix" values="0 0 0 0 0 0 0 0 0 0 0 0 0 0 0 0 0 0 0.25 0"/>
<feBlend mode="normal" in2="BackgroundImageFix" result="effect1_dropShadow_175_1389"/>
<feBlend mode="normal" in="SourceGraphic" in2="effect1_dropShadow_175_1389" result="shape"/>
</filter>
<linearGradient id="paint0_linear_175_1389" x1="24.9" y1="0" x2="24.9" y2="48" gradientUnits="userSpaceOnUse">
<stop stop-opacity="0"/>
<stop offset="1" stop-color="#5F37FF"/>
</linearGradient>
<clipPath id="clip0_175_1389">
<rect width="22" height="22" fill="white" transform="translate(14.4 14)"/>
</clipPath>
</defs>
</svg>
