<svg width="47" height="46" viewBox="0 0 47 46" fill="none" xmlns="http://www.w3.org/2000/svg">
<path d="M23.8346 41.5029V14.7393M20.7201 13.1337C21.0514 13.208 21.4006 13.1169 21.6391 12.8784C21.8776 12.6398 21.9686 12.2905 21.8944 11.9593C21.597 10.7446 20.5016 6.67695 19.3768 5.55213C17.9754 4.15074 15.6946 4.1449 14.3001 5.53936C12.9057 6.93372 12.9114 9.21455 14.3129 10.616C15.4561 11.7593 19.5054 12.8363 20.7201 13.1337ZM24.1213 11.9592C24.047 12.2906 24.1381 12.6397 24.3767 12.8783C24.6152 13.1168 24.9645 13.2078 25.2957 13.1336C26.5104 12.8362 30.5781 11.7408 31.7029 10.6159C33.1043 9.21455 33.1101 6.93372 31.7157 5.53926C30.3213 4.1449 28.0405 4.15054 26.639 5.55203C25.4958 6.69527 24.4187 10.7445 24.1213 11.9592ZM6.43828 24.1065H40.5619C41.301 24.1065 41.9001 23.5074 41.9001 22.7684V16.0774C41.9001 15.3384 41.301 14.7393 40.5619 14.7393H6.43828C5.69922 14.7393 5.1001 15.3384 5.1001 16.0774V22.7684C5.1001 23.5074 5.69922 24.1065 6.43828 24.1065ZM38.5546 24.1065V40.1647C38.5546 40.9038 37.9555 41.5029 37.2165 41.5029H9.78373C9.04468 41.5029 8.44555 40.9038 8.44555 40.1647V24.1065H38.5546Z" stroke="#3AFFA3" stroke-width="3" stroke-linecap="round" stroke-linejoin="round"/>
</svg>
