<svg width="24" height="24" viewBox="0 0 24 24" fill="none" xmlns="http://www.w3.org/2000/svg">
<path d="M4.88867 17.001C6.24968 17.094 7.6898 17.5276 9.04297 18.3135L9.29395 18.4639C10.5317 19.2296 11.5349 20.2076 12.2432 21.2734L12.832 22.1592L11.7744 22.0469C10.504 21.9129 9.27088 21.5458 8.13672 20.9648L7.65625 20.7031C6.55162 20.0615 5.57673 19.2215 4.7793 18.2275L4.44824 17.792L3.82812 16.9287L4.88867 17.001Z" stroke="white" />
<path d="M3.26465 14.1267C5.36197 13.4184 8.20362 13.8345 10.7773 15.3298L11.25 15.6189C13.5662 17.1076 15.1484 19.2236 15.5459 21.2605L15.6387 21.7361L15.166 21.8435C14.5085 21.9934 13.8382 22.0787 13.1641 22.0994L12.8555 22.1091L12.709 21.8376C12.0065 20.537 10.8794 19.316 9.40332 18.3914L9.10352 18.2107C7.47975 17.2677 5.74366 16.8392 4.16797 16.8757L3.85938 16.8826L3.71484 16.6101C3.39887 16.0148 3.14149 15.3901 2.94629 14.7449L2.80566 14.282L3.26465 14.1267Z" stroke="white" />
<path d="M10.4756 2.16455C11.6587 1.89161 12.8824 1.82875 14.0898 1.97998L14.6045 2.05811C15.8004 2.26944 16.9515 2.68986 18.0039 3.30127L18.4473 3.57373C19.4653 4.23583 20.3602 5.07314 21.0898 6.04736L21.3916 6.47217C22.0695 7.47937 22.566 8.59911 22.8564 9.78076L21.9697 10.1987C20.8131 8.64327 19.1487 7.12906 17.0791 5.86182L16.6602 5.61182C14.5374 4.37865 12.3859 3.62244 10.4346 3.32568L10.0469 3.27197L9.9707 2.29443L10.4756 2.16455Z" stroke="white" />
<path d="M7.20312 7.09326L7.62109 7.11182C9.72748 7.24782 12.0705 8.02726 14.2754 9.30811L14.7119 9.56885C16.8667 10.8979 18.6344 12.5787 19.7051 14.3569L19.8818 14.6655C20.7221 16.1948 20.9751 17.7388 20.3311 18.8843L20.332 18.8833C20.3312 18.885 20.328 18.8921 20.3242 18.8999C20.32 18.9084 20.3137 18.9202 20.3057 18.9341L20.2734 18.9907L20.2285 19.0366C20.086 19.1806 19.9396 19.3178 19.792 19.4497L19.0957 20.0718L18.9639 19.1479C18.8522 18.3656 18.5676 17.5318 18.1006 16.6714V16.6704C17.1226 14.8786 15.452 13.1854 13.3545 11.8813L12.9297 11.6265C10.776 10.3752 8.47109 9.68307 6.39648 9.63525L5.98535 9.63428C5.12991 9.65053 4.36129 9.77992 3.69043 10.0063L3.40918 10.1089L2.53809 10.4526L2.7373 9.5376C2.7791 9.34545 2.82525 9.15066 2.87988 8.95459L2.89844 8.88721L2.93555 8.82764L2.95215 8.80225C2.94945 8.80637 2.94519 8.81264 2.94043 8.8208L3.08496 8.59912C3.85767 7.53029 5.40745 7.05073 7.20312 7.09326Z" stroke="white" />
<path d="M2.9043 11.266C3.97041 10.5607 5.46436 10.3277 7.06738 10.4808C8.7913 10.6456 10.7118 11.262 12.5273 12.3168L12.8643 12.5179C14.5277 13.5421 15.8931 14.8232 16.8281 16.1508C17.8174 17.5555 18.3636 19.0704 18.1836 20.4105L18.1494 20.6586L17.9316 20.7806C17.522 21.0093 17.0971 21.2099 16.6602 21.3812L16.1182 21.5931L15.9902 21.0258C15.8716 20.502 15.694 19.9934 15.4619 19.5092L15.4609 19.5072C14.6649 17.8319 13.2349 16.2832 11.3975 15.1302L11.0244 14.9047C9.00773 13.7324 6.80392 13.183 4.83008 13.3314H4.82812C4.29195 13.37 3.76156 13.4675 3.24707 13.6234L2.69141 13.7924L2.60742 13.2172C2.53982 12.753 2.50388 12.2849 2.5 11.8158L2.49805 11.5658L2.69629 11.4135L2.9043 11.266Z" stroke="white" />
<path d="M8.93823 4.02222L9.35718 4.04272C11.4697 4.19015 13.8215 4.98164 16.0408 6.27026L16.4792 6.53198C18.6486 7.86824 20.4311 9.55238 21.5134 11.3279V11.3289L21.6697 11.5964C22.4246 12.935 22.7243 14.2703 22.3562 15.3357L21.8962 16.6658L21.4138 15.3435C20.585 13.074 18.4902 10.6279 15.4558 8.71851L14.8367 8.34448C11.4682 6.38764 8.04029 5.66696 5.49878 6.09741L4.11108 6.33276L5.03882 5.27515L5.19507 5.11108C6.01245 4.32264 7.3723 3.97702 8.93823 4.02222Z" stroke="white" />
</svg>
