<svg width="189" height="35" viewBox="0 0 189 35" fill="none" xmlns="http://www.w3.org/2000/svg">
<g clip-path="url(#clip0_1724_2930)">
<path d="M175.354 28.2446V10.8991H178.996L179.071 13.7563L178.768 13.6299C179.105 12.6522 179.653 11.9021 180.411 11.3795C181.17 10.857 182.055 10.5957 183.066 10.5957C184.331 10.5957 185.384 10.9076 186.227 11.5312C187.07 12.1549 187.702 13.0062 188.123 14.085C188.562 15.147 188.781 16.3438 188.781 17.6755C188.781 18.9903 188.562 20.1871 188.123 21.2659C187.702 22.3448 187.061 23.196 186.202 23.8197C185.359 24.4434 184.305 24.7553 183.041 24.7553C182.384 24.7553 181.768 24.6373 181.195 24.4013C180.622 24.1484 180.125 23.8029 179.704 23.3646C179.299 22.9263 179.004 22.4038 178.819 21.7969L179.147 21.5947V28.2446H175.354ZM182.004 21.8475C182.898 21.8475 183.597 21.4767 184.103 20.735C184.626 19.9933 184.887 18.9734 184.887 17.6755C184.887 16.3775 184.626 15.3577 184.103 14.616C183.597 13.8743 182.898 13.5035 182.004 13.5035C181.414 13.5035 180.9 13.6636 180.462 13.9839C180.041 14.2873 179.712 14.7509 179.476 15.3746C179.257 15.9983 179.147 16.7652 179.147 17.6755C179.147 18.5857 179.257 19.3527 179.476 19.9764C179.712 20.6001 180.041 21.0721 180.462 21.3924C180.9 21.6958 181.414 21.8475 182.004 21.8475Z" fill="white"/>
<path d="M166.369 24.7553C164.986 24.7553 163.781 24.4687 162.753 23.8956C161.725 23.3056 160.924 22.4796 160.351 21.4177C159.778 20.3557 159.491 19.1083 159.491 17.6755C159.491 16.2427 159.778 15.0037 160.351 13.9586C160.924 12.8966 161.725 12.0707 162.753 11.4807C163.781 10.8907 164.986 10.5957 166.369 10.5957C167.751 10.5957 168.956 10.8907 169.984 11.4807C171.013 12.0707 171.813 12.8966 172.387 13.9586C172.96 15.0037 173.246 16.2427 173.246 17.6755C173.246 19.1083 172.96 20.3557 172.387 21.4177C171.813 22.4796 171.013 23.3056 169.984 23.8956C168.956 24.4687 167.751 24.7553 166.369 24.7553ZM166.369 21.8475C167.313 21.8475 168.046 21.4851 168.569 20.7603C169.091 20.0186 169.352 18.9903 169.352 17.6755C169.352 16.3607 169.091 15.3408 168.569 14.616C168.046 13.8743 167.313 13.5035 166.369 13.5035C165.425 13.5035 164.691 13.8743 164.169 14.616C163.646 15.3408 163.385 16.3607 163.385 17.6755C163.385 18.9903 163.646 20.0186 164.169 20.7603C164.691 21.4851 165.425 21.8475 166.369 21.8475Z" fill="white"/>
<path d="M150.749 24.4518V10.899H154.339L154.466 14.8435L154.188 14.7676C154.407 13.4023 154.795 12.4161 155.351 11.8093C155.907 11.2025 156.674 10.899 157.652 10.899H158.891V14.0344H157.652C156.944 14.0344 156.362 14.1271 155.907 14.3125C155.452 14.4979 155.106 14.7929 154.87 15.1975C154.651 15.602 154.542 16.1499 154.542 16.841V24.4518H150.749Z" fill="white"/>
<path d="M139.633 24.7552C138.487 24.7552 137.492 24.4686 136.649 23.8955C135.823 23.3055 135.183 22.488 134.728 21.4428C134.289 20.3809 134.07 19.1251 134.07 17.6754C134.07 16.2257 134.298 14.9783 134.753 13.9332C135.208 12.8713 135.849 12.0537 136.675 11.4806C137.517 10.8906 138.504 10.5956 139.633 10.5956C140.594 10.5956 141.42 10.7979 142.111 11.2024C142.819 11.5902 143.35 12.1296 143.704 12.8207V6.49945H147.497V24.4518H143.881L143.805 22.4542C143.434 23.1791 142.878 23.7438 142.136 24.1483C141.411 24.5529 140.577 24.7552 139.633 24.7552ZM140.872 21.8474C141.479 21.8474 141.993 21.6873 142.414 21.367C142.836 21.0467 143.156 20.5832 143.375 19.9763C143.594 19.3526 143.704 18.5857 143.704 17.6754C143.704 16.7483 143.594 15.9813 143.375 15.3745C143.156 14.7508 142.836 14.2872 142.414 13.9838C141.993 13.6635 141.479 13.5034 140.872 13.5034C139.979 13.5034 139.271 13.8827 138.748 14.6412C138.225 15.3829 137.964 16.3943 137.964 17.6754C137.964 18.9396 138.225 19.951 138.748 20.7096C139.287 21.4681 139.995 21.8474 140.872 21.8474Z" fill="white"/>
<path d="M126.088 24.7553C124.705 24.7553 123.5 24.4687 122.472 23.8956C121.461 23.3056 120.668 22.4796 120.095 21.4177C119.539 20.3557 119.261 19.1083 119.261 17.6755C119.261 16.2427 119.539 15.0037 120.095 13.9586C120.668 12.8966 121.461 12.0707 122.472 11.4807C123.483 10.8907 124.68 10.5957 126.062 10.5957C127.411 10.5957 128.582 10.8907 129.577 11.4807C130.572 12.0707 131.339 12.9135 131.878 14.0092C132.434 15.1049 132.712 16.4112 132.712 17.9283V18.6869H123.18C123.23 19.7657 123.517 20.5664 124.04 21.089C124.579 21.6115 125.287 21.8728 126.164 21.8728C126.804 21.8728 127.335 21.7379 127.756 21.4682C128.195 21.1985 128.507 20.7855 128.692 20.2293L132.51 20.4568C132.156 21.8054 131.406 22.8589 130.26 23.6174C129.113 24.376 127.723 24.7553 126.088 24.7553ZM123.18 16.3607H128.818C128.768 15.3661 128.49 14.6244 127.984 14.1356C127.495 13.6468 126.855 13.4023 126.062 13.4023C125.27 13.4023 124.613 13.6636 124.09 14.1862C123.584 14.6919 123.281 15.4167 123.18 16.3607Z" fill="white"/>
<path d="M97.8018 24.4519V10.8991H101.215L101.342 14.1609L100.988 14.0092C101.173 13.2843 101.451 12.6691 101.822 12.1634C102.21 11.6577 102.673 11.27 103.213 11.0003C103.752 10.7306 104.342 10.5957 104.983 10.5957C106.112 10.5957 107.022 10.9244 107.713 11.5818C108.421 12.2392 108.877 13.1242 109.079 14.2367L108.598 14.262C108.75 13.4698 109.011 12.8039 109.382 12.2645C109.77 11.7082 110.242 11.2953 110.798 11.0255C111.354 10.739 111.978 10.5957 112.669 10.5957C113.613 10.5957 114.422 10.7896 115.097 11.1773C115.771 11.565 116.293 12.1465 116.664 12.9219C117.035 13.6805 117.221 14.616 117.221 15.7285V24.4519H113.428V16.7905C113.428 15.7285 113.268 14.9363 112.947 14.4137C112.627 13.8743 112.105 13.6046 111.38 13.6046C110.925 13.6046 110.537 13.731 110.217 13.9839C109.896 14.2367 109.644 14.6076 109.458 15.0964C109.29 15.5684 109.205 16.15 109.205 16.8411V24.4519H105.792V16.8411C105.792 15.796 105.64 14.9953 105.337 14.439C105.033 13.8827 104.511 13.6046 103.769 13.6046C103.314 13.6046 102.918 13.731 102.581 13.9839C102.26 14.2367 102.016 14.6076 101.847 15.0964C101.679 15.5853 101.595 16.1668 101.595 16.8411V24.4519H97.8018Z" fill="white"/>
<path d="M89.0857 24.7553C87.7035 24.7553 86.4982 24.4687 85.47 23.8956C84.4586 23.3056 83.6663 22.4796 83.0932 21.4177C82.5369 20.3557 82.2588 19.1083 82.2588 17.6755C82.2588 16.2427 82.5369 15.0037 83.0932 13.9586C83.6663 12.8966 84.4586 12.0707 85.47 11.4807C86.4814 10.8907 87.6782 10.5957 89.0604 10.5957C90.409 10.5957 91.5805 10.8907 92.575 11.4807C93.5696 12.0707 94.3366 12.9135 94.876 14.0092C95.4322 15.1049 95.7104 16.4112 95.7104 17.9283V18.6869H86.178C86.2285 19.7657 86.5151 20.5664 87.0376 21.089C87.5771 21.6115 88.285 21.8728 89.1616 21.8728C89.8021 21.8728 90.3331 21.7379 90.7545 21.4682C91.1928 21.1985 91.5046 20.7855 91.6901 20.2293L95.5081 20.4568C95.1541 21.8054 94.404 22.8589 93.2577 23.6174C92.1115 24.376 90.7208 24.7553 89.0857 24.7553ZM86.178 16.3607H91.8165C91.7659 15.3661 91.4878 14.6244 90.9821 14.1356C90.4933 13.6468 89.8527 13.4023 89.0604 13.4023C88.2682 13.4023 87.6108 13.6636 87.0882 14.1862C86.5825 14.6919 86.2791 15.4167 86.178 16.3607Z" fill="white"/>
<path d="M60.5566 24.4517V6.49939H65.6895L70.2661 19.5717L74.8173 6.49939H79.9502V24.4517H76.1069V12.8206L71.8843 24.4011H68.5973L64.4 12.8206V24.4517H60.5566Z" fill="white"/>
<path d="M42.7269 19.3372C42.7116 19.3098 42.6964 19.2793 42.678 19.2518L40.7343 15.883H32.7882L34.3353 18.5591C35.3728 20.3564 37.0999 21.5099 38.9919 21.8761H38.4365C38.348 21.873 38.2564 21.87 38.1649 21.87H19.8011C19.7156 21.87 19.6332 21.87 19.5509 21.8761H5.89852C7.11606 21.2231 8.1261 20.1642 8.70283 18.7788L11.498 12.0534C12.3097 10.1004 12.6179 7.99489 12.4226 5.92293L18.3058 15.886L19.8499 18.5622C20.39 19.499 21.1193 20.2557 21.9585 20.8233L21.9493 20.8355C21.9493 20.8355 21.9554 20.8294 21.9615 20.8233C21.9615 20.8233 21.9646 20.8203 21.9676 20.8172C21.992 20.7928 22.0134 20.7653 22.0378 20.7379C22.0409 20.7318 22.0439 20.7287 22.05 20.7226C22.1019 20.6555 22.1416 20.5914 22.1416 20.5914C22.6115 19.8896 23.591 17.9122 24.5065 15.886C25.132 14.5037 25.7271 13.097 26.1146 12.0564C27.0392 9.57861 27.2345 7.99489 27.0392 5.92598L29.4468 10.076H37.5332L33.072 2.61817C32.1382 0.997835 30.4141 0 28.5497 0C26.551 0 24.7292 1.1382 23.8534 2.93248L21.4702 7.82095L21.4641 7.8118V7.8179L18.4554 2.60902C17.5216 0.994784 15.8006 0 13.9331 0C11.9344 0 10.1126 1.1382 9.23684 2.93248L0.74151 20.3534C0.253273 21.3543 0 22.4559 0 23.5697C0 26.435 2.32218 28.7572 5.18752 28.7572H19.7492C19.7675 28.7572 19.7858 28.7572 19.8041 28.7572H38.168C38.2595 28.7572 38.348 28.7572 38.4395 28.7511H38.9949C37.103 29.1173 35.3758 30.2677 34.3383 32.068L32.7912 34.7442H40.7345L46.0804 24.8391L42.7299 19.3342L42.7269 19.3372Z" fill="url(#paint0_linear_1724_2930)"/>
</g>
<defs>
<linearGradient id="paint0_linear_1724_2930" x1="23.0402" y1="4.68177e-07" x2="34.8944" y2="34.7558" gradientUnits="userSpaceOnUse">
<stop offset="0.509615" stop-color="#3AFFA3"/>
<stop offset="1" stop-color="#1D9ED1"/>
</linearGradient>
<clipPath id="clip0_1724_2930">
<rect width="188.781" height="34.7442" fill="white"/>
</clipPath>
</defs>
</svg>
