<svg width="46" height="46" viewBox="0 0 46 46" fill="none" xmlns="http://www.w3.org/2000/svg">
<path d="M41.3996 31.74V32.74C41.9519 32.74 42.3996 32.2923 42.3996 31.74H41.3996ZM41.3996 21.62H42.3996C42.3996 21.0677 41.9519 20.62 41.3996 20.62V21.62ZM14.1789 12.4988C13.7143 12.7975 13.5798 13.4162 13.8784 13.8808C14.1771 14.3453 14.7958 14.4798 15.2604 14.1812L14.1789 12.4988ZM27.5996 5.06L28.389 4.44606C28.0712 4.03751 27.4942 3.93894 27.0588 4.21882L27.5996 5.06ZM33.2503 13.9539C33.5893 14.3899 34.2176 14.4684 34.6535 14.1294C35.0895 13.7903 35.168 13.162 34.829 12.7261L33.2503 13.9539ZM41.3996 31.74V30.74H35.4196V31.74V32.74H41.3996V31.74ZM35.4196 21.62V22.62H41.3996V21.62V20.62H35.4196V21.62ZM41.3996 21.62H40.3996V31.74H41.3996H42.3996V21.62H41.3996ZM30.3596 26.68H31.3596C31.3596 24.4377 33.1773 22.62 35.4196 22.62V21.62V20.62C32.0728 20.62 29.3596 23.3332 29.3596 26.68H30.3596ZM35.4196 31.74V30.74C33.1773 30.74 31.3596 28.9223 31.3596 26.68H30.3596H29.3596C29.3596 30.0268 32.0728 32.74 35.4196 32.74V31.74ZM14.7196 13.34L15.2604 14.1812L28.1404 5.90118L27.5996 5.06L27.0588 4.21882L14.1789 12.4988L14.7196 13.34ZM27.5996 5.06L26.8103 5.67394L33.2503 13.9539L34.0396 13.34L34.829 12.7261L28.389 4.44606L27.5996 5.06ZM6.43961 13.34V14.34H37.7196V13.34V12.34H6.43961V13.34ZM37.7196 40.94V39.94H6.43961V40.94V41.94H37.7196V40.94ZM4.59961 39.1H5.59961V15.18H4.59961H3.59961V39.1H4.59961ZM6.43961 40.94V39.94C5.97569 39.94 5.59961 39.5639 5.59961 39.1H4.59961H3.59961C3.59961 40.6685 4.87112 41.94 6.43961 41.94V40.94ZM39.5596 39.1H38.5596C38.5596 39.5639 38.1835 39.94 37.7196 39.94V40.94V41.94C39.2881 41.94 40.5596 40.6685 40.5596 39.1H39.5596ZM37.7196 13.34V14.34C38.1835 14.34 38.5596 14.7161 38.5596 15.18H39.5596H40.5596C40.5596 13.6115 39.2881 12.34 37.7196 12.34V13.34ZM6.43961 13.34V12.34C4.87112 12.34 3.59961 13.6115 3.59961 15.18H4.59961H5.59961C5.59961 14.7161 5.97569 14.34 6.43961 14.34V13.34ZM39.5596 33.12H38.5596V39.1H39.5596H40.5596V33.12H39.5596ZM39.5596 15.18H38.5596V20.01H39.5596H40.5596V15.18H39.5596Z" fill="#3AFFA3"/>
</svg>
