<svg width="22" height="24" viewBox="0 0 22 24" fill="none" xmlns="http://www.w3.org/2000/svg">
<path d="M2.89709 7.60718V16.9597L10.9987 21.6345L19.0983 16.9597V9.23022L19.3492 9.08569L19.5094 8.99292L19.3453 8.9021L18.3531 8.35034L18.0953 8.20776V6.46362L17.858 6.60132L17.608 6.74487L17.358 6.60034L10.9987 2.92749L2.89709 7.60718ZM11.9576 7.03394L12.1393 7.03979C13.0446 7.08988 13.9023 7.47189 14.5465 8.11597L14.6725 8.2478C15.2812 8.91962 15.6228 9.79405 15.6285 10.7048L15.6198 10.9841C15.5743 11.6331 15.3533 12.2596 14.9772 12.7947L14.9762 12.7937C14.5815 13.3743 14.027 13.8289 13.3795 14.1003L13.359 14.1082L13.3375 14.115C12.7338 14.3064 12.1038 14.4007 11.4703 14.3962V14.3972H9.09241V17.7546H6.65393V11.9304H11.944C12.2662 11.9268 12.5745 11.796 12.8014 11.5671L12.8815 11.4783C13.0579 11.2615 13.156 10.9897 13.1569 10.7078V10.7029L13.152 10.5867C13.1415 10.4704 13.1132 10.356 13.068 10.2478C13.0078 10.1038 12.9188 9.97338 12.8063 9.86499L12.8004 9.86011L12.7946 9.85425C12.6852 9.74188 12.5545 9.65209 12.4098 9.59155C12.2651 9.53104 12.1095 9.50066 11.9528 9.50171H6.65393V7.03394H11.9576ZM14.0563 14.3201L15.5289 16.8855L15.9586 17.6345H13.1276L12.983 17.3835L11.6881 15.1248L11.2877 14.4255L12.0914 14.3767C12.5566 14.3483 13.0157 14.2548 13.4547 14.0984L13.8483 13.9578L14.0563 14.3201ZM21.0807 8.09155L21.1002 8.08081V18.114L20.8502 18.2576L11.2496 23.8015L10.9996 23.9451L10.7496 23.8015L1.15002 18.2576L0.900024 18.114V6.45483L1.15002 6.3103L10.7496 0.767334L10.9996 0.622803L11.2496 0.767334L18.8551 5.15894L19.6051 5.59253L19.5944 5.59741L19.8395 5.73999L20.8317 6.31519L21.0807 6.45972V8.09155Z" stroke="white"/>
</svg>
