<svg width="48" height="48" viewBox="0 0 48 48" fill="none" xmlns="http://www.w3.org/2000/svg">
<rect width="48" height="48" rx="24" fill="white" fill-opacity="0.07"/>
<rect width="48" height="48" rx="24" fill="url(#paint0_linear_175_1402)" fill-opacity="0.2"/>
<g clip-path="url(#clip0_175_1402)">
<g filter="url(#filter0_d_175_1402)">
<path fill-rule="evenodd" clip-rule="evenodd" d="M24.306 15.9404C24.5483 15.9042 24.7954 15.9582 25.0005 16.0921C25.2056 16.226 25.3544 16.4305 25.4187 16.6668L25.4429 16.7815C25.4809 17.0336 25.6137 17.2616 25.8141 17.419C26.0146 17.5764 26.2676 17.6514 26.5215 17.6285C26.7753 17.6056 27.0108 17.4867 27.18 17.296C27.3491 17.1053 27.439 16.8572 27.4313 16.6025L27.4209 16.4857C27.3817 16.2234 27.4483 15.9563 27.606 15.7431C27.7638 15.5299 27.9997 15.388 28.262 15.3488L30.24 15.053C31.0269 14.9353 31.8283 15.135 32.468 15.6083C33.1076 16.0815 33.5331 16.7894 33.6507 17.5763L35.1298 27.4663C35.2475 28.2532 35.0477 29.0546 34.5745 29.6943C34.1013 30.3339 33.3934 30.7593 32.6065 30.877L30.6285 31.1728C30.3863 31.209 30.1392 31.1551 29.9341 31.0212C29.729 30.8873 29.5801 30.6827 29.5158 30.4464L29.4916 30.3317C29.4536 30.0797 29.3208 29.8517 29.1204 29.6943C28.9199 29.5368 28.6669 29.4619 28.4131 29.4848C28.1592 29.5076 27.9237 29.6266 27.7546 29.8173C27.5855 30.008 27.4956 30.256 27.5032 30.5108L27.5136 30.6275C27.5528 30.8898 27.4862 31.157 27.3285 31.3702C27.1708 31.5834 26.9348 31.7252 26.6725 31.7645L18.7605 32.9477C17.9736 33.0654 17.1722 32.8656 16.5325 32.3924C15.8929 31.9192 15.4674 31.2113 15.3498 30.4244L13.8707 20.5344C13.753 19.7475 13.9528 18.9461 14.426 18.3064C14.8992 17.6668 15.6071 17.2413 16.394 17.1237L24.306 15.9404ZM27.6152 24.5456C27.3529 24.5849 27.1169 24.7267 26.9592 24.9399C26.8014 25.1531 26.7348 25.4202 26.7741 25.6825L26.922 26.6715C26.9612 26.9338 27.103 27.1698 27.3162 27.3275C27.5294 27.4853 27.7966 27.5519 28.0589 27.5126C28.3212 27.4734 28.5572 27.3316 28.7149 27.1184C28.8726 26.9052 28.9392 26.638 28.9 26.3757L28.7521 25.3867C28.7128 25.1244 28.571 24.8885 28.3578 24.7307C28.1446 24.573 27.8775 24.5064 27.6152 24.5456ZM26.8756 19.6006C26.6334 19.6369 26.4129 19.7608 26.256 19.9488C26.099 20.1369 26.0165 20.376 26.0242 20.6208L26.0345 20.7375L26.1825 21.7265C26.2204 21.9786 26.3532 22.2066 26.5537 22.364C26.7541 22.5214 27.0071 22.5964 27.261 22.5735C27.5148 22.5506 27.7504 22.4317 27.9195 22.241C28.0886 22.0503 28.1785 21.8022 28.1708 21.5475L28.1605 21.4307L28.0125 20.4417C27.9733 20.1794 27.8315 19.9434 27.6183 19.7857C27.4051 19.628 27.1379 19.5614 26.8756 19.6006Z" fill="#4482FF"/>
</g>
</g>
<defs>
<filter id="filter0_d_175_1402" x="9.83771" y="15.02" width="29.3251" height="25.9607" filterUnits="userSpaceOnUse" color-interpolation-filters="sRGB">
<feFlood flood-opacity="0" result="BackgroundImageFix"/>
<feColorMatrix in="SourceAlpha" type="matrix" values="0 0 0 0 0 0 0 0 0 0 0 0 0 0 0 0 0 0 127 0" result="hardAlpha"/>
<feOffset dy="4"/>
<feGaussianBlur stdDeviation="2"/>
<feComposite in2="hardAlpha" operator="out"/>
<feColorMatrix type="matrix" values="0 0 0 0 0 0 0 0 0 0 0 0 0 0 0 0 0 0 0.14 0"/>
<feBlend mode="normal" in2="BackgroundImageFix" result="effect1_dropShadow_175_1402"/>
<feBlend mode="normal" in="SourceGraphic" in2="effect1_dropShadow_175_1402" result="shape"/>
</filter>
<linearGradient id="paint0_linear_175_1402" x1="24" y1="0" x2="24" y2="48" gradientUnits="userSpaceOnUse">
<stop stop-opacity="0"/>
<stop offset="1" stop-color="#3784FF"/>
</linearGradient>
<clipPath id="clip0_175_1402">
<rect width="24" height="24" fill="white" transform="translate(9.85742 13.9072) rotate(-8.50555)"/>
</clipPath>
</defs>
</svg>
