<svg width="33" height="33" viewBox="0 0 33 33" fill="none" xmlns="http://www.w3.org/2000/svg">
<path d="M14.5351 18.3304C14.1343 17.9474 13.9339 17.4976 13.9339 16.981C13.9339 16.4643 14.1343 16.0056 14.5351 15.6048C14.5975 15.5424 14.6955 15.4622 14.8291 15.3643C14.9627 15.2574 15.074 15.1727 15.1631 15.1104L21.3226 10.7947C21.4562 10.6968 21.5854 10.6567 21.7101 10.6745C21.8437 10.6834 21.955 10.7324 22.0441 10.8215C22.1332 10.9105 22.1822 11.0219 22.1911 11.1555C22.2089 11.2802 22.1688 11.4138 22.0708 11.5563L17.7552 17.7025C17.6928 17.8004 17.6126 17.9162 17.5147 18.0498C17.4167 18.1746 17.3321 18.2681 17.2608 18.3304C16.86 18.7313 16.4012 18.9317 15.8846 18.9317C15.3769 18.9317 14.9271 18.7313 14.5351 18.3304ZM11.2483 22.7396C10.9721 22.7396 10.7316 22.6372 10.5268 22.4323C10.3219 22.2274 10.2195 21.9825 10.2195 21.6974C10.2195 21.4213 10.3219 21.1853 10.5268 20.9893C10.7316 20.7844 10.9721 20.682 11.2483 20.682C11.5244 20.682 11.7605 20.7844 11.9564 20.9893C12.1613 21.1853 12.2637 21.4213 12.2637 21.6974C12.2637 21.9825 12.1613 22.2274 11.9564 22.4323C11.7605 22.6372 11.5244 22.7396 11.2483 22.7396ZM9.07041 17.5288C8.78537 17.5288 8.54042 17.4308 8.33554 17.2348C8.13958 17.0299 8.0416 16.785 8.0416 16.5C8.0416 16.2238 8.13958 15.9878 8.33554 15.7918C8.54042 15.5869 8.78537 15.4845 9.07041 15.4845C9.35545 15.4845 9.59595 15.5869 9.79191 15.7918C9.99678 15.9878 10.0992 16.2238 10.0992 16.5C10.0992 16.785 9.99678 17.0299 9.79191 17.2348C9.59595 17.4308 9.35545 17.5288 9.07041 17.5288ZM11.2483 12.3313C10.9721 12.3313 10.7316 12.2333 10.5268 12.0373C10.3219 11.8324 10.2195 11.5875 10.2195 11.3025C10.2195 11.0263 10.3219 10.7858 10.5268 10.581C10.7316 10.3761 10.9721 10.2736 11.2483 10.2736C11.5244 10.2736 11.7605 10.3761 11.9564 10.581C12.1613 10.7858 12.2637 11.0263 12.2637 11.3025C12.2637 11.5875 12.1613 11.8324 11.9564 12.0373C11.7605 12.2333 11.5244 12.3313 11.2483 12.3313ZM16.4859 10.1267C16.2097 10.1267 15.9692 10.0287 15.7644 9.83273C15.5684 9.62786 15.4704 9.3829 15.4704 9.09786C15.4704 8.82173 15.5684 8.58123 15.7644 8.37636C15.9692 8.17149 16.2097 8.06905 16.4859 8.06905C16.7709 8.06905 17.0114 8.17149 17.2074 8.37636C17.4122 8.58123 17.5147 8.82173 17.5147 9.09786C17.5147 9.3829 17.4122 9.62786 17.2074 9.83273C17.0114 10.0287 16.7709 10.1267 16.4859 10.1267ZM23.8879 17.5288C23.6118 17.5288 23.3713 17.4308 23.1664 17.2348C22.9616 17.0299 22.8591 16.785 22.8591 16.5C22.8591 16.2238 22.9616 15.9878 23.1664 15.7918C23.3713 15.5869 23.6118 15.4845 23.8879 15.4845C24.1641 15.4845 24.4001 15.5869 24.5961 15.7918C24.801 15.9878 24.9034 16.2238 24.9034 16.5C24.9034 16.785 24.801 17.0299 24.5961 17.2348C24.4001 17.4308 24.1641 17.5288 23.8879 17.5288ZM21.7101 22.7396C21.425 22.7396 21.1801 22.6372 20.9752 22.4323C20.7792 22.2274 20.6813 21.9825 20.6813 21.6974C20.6813 21.4213 20.7792 21.1853 20.9752 20.9893C21.1801 20.7844 21.425 20.682 21.7101 20.682C21.9951 20.682 22.2356 20.7844 22.4316 20.9893C22.6364 21.1853 22.7389 21.4213 22.7389 21.6974C22.7389 21.9825 22.6364 22.2274 22.4316 22.4323C22.2356 22.6372 21.9951 22.7396 21.7101 22.7396ZM16.4992 29.3C14.7445 29.3 13.0966 28.9659 11.5556 28.2979C10.0146 27.6298 8.65621 26.7079 7.48043 25.5321C6.30465 24.3563 5.37827 22.9979 4.70131 21.4569C4.03325 19.907 3.69922 18.2547 3.69922 16.5C3.69922 14.7541 4.03325 13.1107 4.70131 11.5697C5.36936 10.0198 6.29129 8.65694 7.46707 7.48116C8.65176 6.29647 10.0146 5.3701 11.5556 4.70204C13.0966 4.03398 14.74 3.69995 16.4859 3.69995C18.2406 3.69995 19.8885 4.03398 21.4295 4.70204C22.9705 5.3701 24.3289 6.29647 25.5046 7.48116C26.6893 8.65694 27.6157 10.0198 28.2838 11.5697C28.9607 13.1107 29.2992 14.7541 29.2992 16.5C29.2992 18.2547 28.9652 19.907 28.2971 21.4569C27.6291 22.9979 26.7027 24.3563 25.518 25.5321C24.3422 26.7079 22.9838 27.6298 21.4429 28.2979C19.9019 28.9659 18.254 29.3 16.4992 29.3ZM16.4992 27.3626C18.0046 27.3626 19.412 27.082 20.7213 26.5208C22.0396 25.9597 23.1932 25.1847 24.1819 24.196C25.1795 23.1984 25.9545 22.0448 26.5067 20.7354C27.0679 19.4171 27.3485 18.0053 27.3485 16.5C27.3485 15.0035 27.0679 13.6006 26.5067 12.2912C25.9545 10.9729 25.1795 9.81937 24.1819 8.83064C23.1932 7.83301 22.0396 7.0536 20.7213 6.49244C19.412 5.93127 18.0001 5.65068 16.4859 5.65068C14.9805 5.65068 13.5731 5.93127 12.2637 6.49244C10.9543 7.0536 9.80527 7.83301 8.81655 8.83064C7.82782 9.81937 7.05287 10.9729 6.4917 12.2912C5.93053 13.6006 5.64995 15.0035 5.64995 16.5C5.64995 18.0053 5.93053 19.4171 6.4917 20.7354C7.05287 22.0448 7.82782 23.1984 8.81655 24.196C9.80527 25.1847 10.9543 25.9597 12.2637 26.5208C13.582 27.082 14.9939 27.3626 16.4992 27.3626Z" fill="#3AFFA3"/>
</svg>
