<svg width="46" height="46" viewBox="0 0 46 46" fill="none" xmlns="http://www.w3.org/2000/svg">
<path d="M3.09961 41.3998C3.09952 42.2282 3.77101 42.8999 4.59944 42.9C5.42787 42.9001 6.09952 42.2286 6.09961 41.4001L3.09961 41.3998ZM4.60039 34.4992L6.10039 34.4994L4.60039 34.4992ZM24.1496 29.1C24.978 29.1 25.6496 28.4284 25.6496 27.6C25.6496 26.7715 24.978 26.1 24.1496 26.1V29.1ZM41.3996 31.4C42.228 31.4 42.8996 30.7284 42.8996 29.9C42.8996 29.0715 42.228 28.4 41.3996 28.4V31.4ZM31.0496 28.4C30.2212 28.4 29.5496 29.0715 29.5496 29.9C29.5496 30.7284 30.2212 31.4 31.0496 31.4V28.4ZM34.7246 35.0747C34.7246 35.9031 35.3962 36.5747 36.2246 36.5747C37.053 36.5747 37.7246 35.9031 37.7246 35.0747H34.7246ZM37.7246 24.7247C37.7246 23.8963 37.053 23.2247 36.2246 23.2247C35.3962 23.2247 34.7246 23.8963 34.7246 24.7247H37.7246ZM27.5996 11.5H26.0996C26.0996 14.4823 23.6819 16.9 20.6996 16.9V18.4V19.9C25.3388 19.9 29.0996 16.1392 29.0996 11.5H27.5996ZM20.6996 18.4V16.9C17.7173 16.9 15.2996 14.4823 15.2996 11.5H13.7996H12.2996C12.2996 16.1392 16.0604 19.9 20.6996 19.9V18.4ZM13.7996 11.5H15.2996C15.2996 8.51764 17.7173 6.09998 20.6996 6.09998V4.59998V3.09998C16.0604 3.09998 12.2996 6.86078 12.2996 11.5H13.7996ZM20.6996 4.59998V6.09998C23.6819 6.09998 26.0996 8.51764 26.0996 11.5H27.5996H29.0996C29.0996 6.86078 25.3388 3.09998 20.6996 3.09998V4.59998ZM4.59961 41.4L6.09961 41.4001L6.10039 34.4994L4.60039 34.4992L3.10039 34.499L3.09961 41.3998L4.59961 41.4ZM11.5004 27.6V26.1C6.86156 26.1 3.10091 29.8602 3.10039 34.499L4.60039 34.4992L6.10039 34.4994C6.10072 31.5173 8.51828 29.1 11.5004 29.1V27.6ZM11.5004 27.6V29.1H24.1496V27.6V26.1H11.5004V27.6ZM41.3996 29.9V28.4H36.2246V29.9V31.4H41.3996V29.9ZM36.2246 29.9V28.4H31.0496V29.9V31.4H36.2246V29.9ZM36.2246 35.0747H37.7246V29.9H36.2246H34.7246V35.0747H36.2246ZM36.2246 29.9H37.7246V24.7247H36.2246H34.7246V29.9H36.2246Z" fill="#3AFFA3"/>
</svg>
