<svg width="49" height="48" viewBox="0 0 49 48" fill="none" xmlns="http://www.w3.org/2000/svg">
<rect x="0.900024" width="48" height="48" rx="24" fill="white" fill-opacity="0.07"/>
<rect x="0.900024" width="48" height="48" rx="24" fill="url(#paint0_linear_218_81)" fill-opacity="0.2"/>
<path d="M25 33.3333C22.3944 33.3333 20.1875 32.4292 18.3792 30.6208C16.5708 28.8125 15.6667 26.6056 15.6667 24C15.6667 21.3944 16.5708 19.1875 18.3792 17.3792C20.1875 15.5708 22.3944 14.6667 25 14.6667C26.3417 14.6667 27.625 14.9436 28.85 15.4973C30.075 16.0511 31.125 16.8437 32 17.875V15.8333C32 15.5028 32.112 15.2259 32.336 15.0027C32.56 14.7794 32.8369 14.6674 33.1667 14.6667C33.4964 14.6659 33.7737 14.7779 33.9985 15.0027C34.2233 15.2274 34.3349 15.5043 34.3333 15.8333V21.6667C34.3333 21.9972 34.2213 22.2745 33.9973 22.4985C33.7733 22.7225 33.4964 22.8341 33.1667 22.8333H27.3333C27.0028 22.8333 26.7259 22.7213 26.5027 22.4973C26.2794 22.2733 26.1674 21.9964 26.1667 21.6667C26.1659 21.3369 26.2779 21.06 26.5027 20.836C26.7274 20.612 27.0043 20.5 27.3333 20.5H31.0667C30.4444 19.4111 29.5939 18.5556 28.5152 17.9333C27.4364 17.3111 26.2647 17 25 17C23.0556 17 21.4028 17.6806 20.0417 19.0417C18.6806 20.4028 18 22.0556 18 24C18 25.9444 18.6806 27.5972 20.0417 28.9583C21.4028 30.3194 23.0556 31 25 31C26.3222 31 27.5328 30.6648 28.6318 29.9943C29.7308 29.3239 30.5813 28.4244 31.1833 27.2958C31.3389 27.0236 31.5578 26.8342 31.8402 26.7277C32.1225 26.6211 32.4091 26.6161 32.7 26.7125C33.0111 26.8097 33.2347 27.0139 33.3708 27.325C33.5069 27.6361 33.4972 27.9278 33.3417 28.2C32.5444 29.7556 31.4069 31 29.9292 31.9333C28.4514 32.8667 26.8083 33.3333 25 33.3333Z" fill="#F24BE7"/>
<defs>
<linearGradient id="paint0_linear_218_81" x1="24.9" y1="0" x2="24.9" y2="48" gradientUnits="userSpaceOnUse">
<stop stop-opacity="0"/>
<stop offset="1" stop-color="#F24BE7"/>
</linearGradient>
</defs>
</svg>
