<svg width="19" height="18" viewBox="0 0 19 18" fill="none" xmlns="http://www.w3.org/2000/svg">
<path fill-rule="evenodd" clip-rule="evenodd" d="M4.25 4.6875C3.70299 4.6875 3.17839 4.9048 2.79159 5.29159C2.4048 5.67839 2.1875 6.20299 2.1875 6.75V13.5C2.1875 14.047 2.4048 14.5716 2.79159 14.9584C3.17839 15.3452 3.70299 15.5625 4.25 15.5625H14.75C15.297 15.5625 15.8216 15.3452 16.2084 14.9584C16.5952 14.5716 16.8125 14.047 16.8125 13.5V6.75C16.8125 6.20299 16.5952 5.67839 16.2084 5.29159C15.8216 4.9048 15.297 4.6875 14.75 4.6875H4.25ZM12.875 9.1875C12.6264 9.1875 12.3879 9.28627 12.2121 9.46209C12.0363 9.6379 11.9375 9.87636 11.9375 10.125C11.9375 10.3736 12.0363 10.6121 12.2121 10.7879C12.3879 10.9637 12.6264 11.0625 12.875 11.0625C13.1236 11.0625 13.3621 10.9637 13.5379 10.7879C13.7137 10.6121 13.8125 10.3736 13.8125 10.125C13.8125 9.87636 13.7137 9.6379 13.5379 9.46209C13.3621 9.28627 13.1236 9.1875 12.875 9.1875Z" fill="#11251B"/>
<path d="M12.8637 2.30174C13.0858 2.24257 13.3185 2.2352 13.5439 2.28022C13.7692 2.32525 13.9812 2.42144 14.1635 2.5614C14.3458 2.70135 14.4935 2.88131 14.5951 3.0874C14.6968 3.29349 14.7498 3.52018 14.75 3.74999H7.25L12.8637 2.30174Z" fill="#11251B"/>
</svg>
