<svg width="49" height="48" viewBox="0 0 49 48" fill="none" xmlns="http://www.w3.org/2000/svg">
<rect x="0.900024" width="48" height="48" rx="24" fill="white" fill-opacity="0.07"/>
<rect x="0.900024" width="48" height="48" rx="24" fill="url(#paint0_linear_175_1364)" fill-opacity="0.2"/>
<g filter="url(#filter0_d_175_1364)">
<path fill-rule="evenodd" clip-rule="evenodd" d="M17.9 18.25C17.1707 18.25 16.4712 18.5397 15.9555 19.0555C15.4398 19.5712 15.15 20.2707 15.15 21V30C15.15 30.7293 15.4398 31.4288 15.9555 31.9445C16.4712 32.4603 17.1707 32.75 17.9 32.75H31.9C32.6294 32.75 33.3288 32.4603 33.8446 31.9445C34.3603 31.4288 34.65 30.7293 34.65 30V21C34.65 20.2707 34.3603 19.5712 33.8446 19.0555C33.3288 18.5397 32.6294 18.25 31.9 18.25H17.9ZM29.4 24.25C29.0685 24.25 28.7506 24.3817 28.5161 24.6161C28.2817 24.8505 28.15 25.1685 28.15 25.5C28.15 25.8315 28.2817 26.1495 28.5161 26.3839C28.7506 26.6183 29.0685 26.75 29.4 26.75C29.7315 26.75 30.0495 26.6183 30.2839 26.3839C30.5183 26.1495 30.65 25.8315 30.65 25.5C30.65 25.1685 30.5183 24.8505 30.2839 24.6161C30.0495 24.3817 29.7315 24.25 29.4 24.25Z" fill="#3AFFA3"/>
</g>
<path d="M29.385 15.0694C29.6811 14.9905 29.9914 14.9807 30.2918 15.0407C30.5923 15.1007 30.875 15.229 31.118 15.4156C31.3611 15.6022 31.558 15.8422 31.6936 16.1169C31.8291 16.3917 31.8998 16.694 31.9 17.0004H21.9L29.385 15.0694Z" fill="#3AFFA3"/>
<defs>
<filter id="filter0_d_175_1364" x="6.65002" y="13.75" width="36.5" height="31.5" filterUnits="userSpaceOnUse" color-interpolation-filters="sRGB">
<feFlood flood-opacity="0" result="BackgroundImageFix"/>
<feColorMatrix in="SourceAlpha" type="matrix" values="0 0 0 0 0 0 0 0 0 0 0 0 0 0 0 0 0 0 127 0" result="hardAlpha"/>
<feOffset dy="4"/>
<feGaussianBlur stdDeviation="4.25"/>
<feComposite in2="hardAlpha" operator="out"/>
<feColorMatrix type="matrix" values="0 0 0 0 0 0 0 0 0 0 0 0 0 0 0 0 0 0 0.25 0"/>
<feBlend mode="normal" in2="BackgroundImageFix" result="effect1_dropShadow_175_1364"/>
<feBlend mode="normal" in="SourceGraphic" in2="effect1_dropShadow_175_1364" result="shape"/>
</filter>
<linearGradient id="paint0_linear_175_1364" x1="24.9" y1="0" x2="24.9" y2="48" gradientUnits="userSpaceOnUse">
<stop stop-opacity="0"/>
<stop offset="1" stop-color="#3AFFA3" stop-opacity="0.58"/>
</linearGradient>
</defs>
</svg>
